<svg class="icon" style="width: 1em;height: 1em;vertical-align: middle;fill: currentColor;overflow: hidden;" viewBox="0 0 1024 1024" version="1.1" xmlns="http://www.w3.org/2000/svg"><path d="M864 96a64 64 0 0 1 64 64v704a64 64 0 0 1-64 64H160a64 64 0 0 1-64-64V160a64 64 0 0 1 64-64h704z m0 576H160v192h704V672z m0-256H160v192h704V416z m0-256H160v192h704V160z" fill="#17191C" /><path d="M272 736a32 32 0 1 1 0 64 32 32 0 0 1 0-64z m128 0a32 32 0 1 1 0 64 32 32 0 0 1 0-64z m352 0a32 32 0 1 1 0 64H592a32 32 0 1 1 0-64h160zM272 480a32 32 0 1 1 0 64 32 32 0 0 1 0-64z m128 0a32 32 0 1 1 0 64 32 32 0 0 1 0-64z m352 0a32 32 0 1 1 0 64H592a32 32 0 1 1 0-64h160z m0-256a32 32 0 1 1 0 64H592a32 32 0 1 1 0-64h160z m-480 0a32 32 0 1 1 0 64 32 32 0 0 1 0-64z m128 0a32 32 0 1 1 0 64 32 32 0 0 1 0-64z" fill="#1062FE" /></svg>